<svg xmlns="http://www.w3.org/2000/svg" width="86" height="85" viewBox="0 0 86 85"><defs><clipPath id="ugn5a"><path fill="#fff" d="M42.623.044c23.476 0 42.508 19.019 42.508 42.479S66.099 85 42.623 85C19.146 85.001.115 65.983.115 42.523S19.146.044 42.623.044z"/></clipPath></defs><g><g><g><path fill="none" stroke="#677c99" stroke-miterlimit="20" stroke-width="4" d="M42.623.044c23.476 0 42.508 19.019 42.508 42.479S66.099 85 42.623 85C19.146 85.001.115 65.983.115 42.523S19.146.044 42.623.044z" clip-path="url(&quot;#ugn5a&quot;)"/></g><g><path fill="#677c99" d="M42.123 25.032c9.39 0 17.003 7.607 17.003 16.991s-7.613 16.991-17.003 16.991-17.003-7.607-17.003-16.99c0-9.385 7.612-16.992 17.003-16.992z"/></g></g></g></svg>